name D:\school\WTK\thesis\model\3dpredictsim\Results\MidTarsalJoint\Fal_s1_bCst_PF_Song2011_ls150_MT_nl_signed_lin_MTP_T5_ig24_800_50.mot
datacolumns 128
datarows 4
range 1.10441451 1.13754695
endheader
time	pelvis_tilt	pelvis_list	pelvis_rotation	pelvis_tx	pelvis_ty	pelvis_tz	hip_flexion_l	hip_adduction_l	hip_rotation_l	hip_flexion_r	hip_adduction_r	hip_rotation_r	knee_angle_l	knee_angle_r	ankle_angle_l	ankle_angle_r	subtalar_angle_l	subtalar_angle_r	mtj_angle_l	mtj_angle_r	mtp_angle_l	mtp_angle_r	lumbar_extension	lumbar_bending	lumbar_rotation	arm_flex_l	arm_add_l	arm_rot_l	arm_flex_r	arm_add_r	arm_rot_r	elbow_flex_l	elbow_flex_r	pro_sup_l	pro_sup_r	glut_med1_l/activation	glut_med2_l/activation	glut_med3_l/activation	glut_min1_l/activation	glut_min2_l/activation	glut_min3_l/activation	semimem_l/activation	semiten_l/activation	bifemlh_l/activation	bifemsh_l/activation	sar_l/activation	add_long_l/activation	add_brev_l/activation	add_mag1_l/activation	add_mag2_l/activation	add_mag3_l/activation	tfl_l/activation	pect_l/activation	grac_l/activation	glut_max1_l/activation	glut_max2_l/activation	glut_max3_l/activation	iliacus_l/activation	psoas_l/activation	quad_fem_l/activation	gem_l/activation	peri_l/activation	rect_fem_l/activation	vas_med_l/activation	vas_int_l/activation	vas_lat_l/activation	med_gas_l/activation	lat_gas_l/activation	soleus_l/activation	tib_post_l/activation	flex_dig_l/activation	flex_hal_l/activation	tib_ant_l/activation	per_brev_l/activation	per_long_l/activation	per_tert_l/activation	ext_dig_l/activation	ext_hal_l/activation	ercspn_l/activation	intobl_l/activation	extobl_l/activation	glut_med1_r/activation	glut_med2_r/activation	glut_med3_r/activation	glut_min1_r/activation	glut_min2_r/activation	glut_min3_r/activation	semimem_r/activation	semiten_r/activation	bifemlh_r/activation	bifemsh_r/activation	sar_r/activation	add_long_r/activation	add_brev_r/activation	add_mag1_r/activation	add_mag2_r/activation	add_mag3_r/activation	tfl_r/activation	pect_r/activation	grac_r/activation	glut_max1_r/activation	glut_max2_r/activation	glut_max3_r/activation	iliacus_r/activation	psoas_r/activation	quad_fem_r/activation	gem_r/activation	peri_r/activation	rect_fem_r/activation	vas_med_r/activation	vas_int_r/activation	vas_lat_r/activation	med_gas_r/activation	lat_gas_r/activation	soleus_r/activation	tib_post_r/activation	flex_dig_r/activation	flex_hal_r/activation	tib_ant_r/activation	per_brev_r/activation	per_long_r/activation	per_tert_r/activation	ext_dig_r/activation	ext_hal_r/activation	ercspn_r/activation	intobl_r/activation	extobl_r/activation	
          1.10441451	         -2.93017615	         -1.86344761	          4.59443558	          1.38051814	          0.92004722	         -0.00245348	        -17.25023323	         -0.42297518	          6.40675706	         29.52064120	          3.14921713	         -2.97304089	         -5.56226486	        -12.17250322	         -1.81726619	          5.78038540	          6.65762831	         -3.21299419	          2.99947133	          0.28887332	         24.13404035	          0.45925074	         -2.26183458	          0.20264352	         -1.78920577	          4.65664388	        -13.45052342	         14.93943044	         -4.63540061	        -13.45386344	          5.41487872	         33.69690625	         17.91774610	         86.51662706	         86.51662706	          0.33441627	          0.09829225	          0.07449543	          0.33196233	          0.21081855	          0.10946441	          0.05000260	          0.05000084	          0.05000062	          0.06363843	          0.11463614	          0.05000071	          0.05000055	          0.05000076	          0.05000199	          0.05000122	          0.34581000	          0.05000380	          0.05000200	          0.05004616	          0.05000960	          0.05000276	          0.41426114	          0.65846511	          0.05000091	          0.05000325	          0.05358188	          0.20812300	          0.05000193	          0.05000190	          0.05000179	          0.30057173	          0.41963545	          0.31825150	          0.31601598	          0.33767953	          0.41263505	          0.05000033	          0.05275181	          0.09244792	          0.05000178	          0.05000047	          0.05000163	          0.05000012	          0.05000006	          0.05000012	          0.05000385	          0.05000179	          0.05918260	          0.05000080	          0.05000106	          0.05000617	          0.08370241	          0.05920560	          0.23160169	          0.05000211	          0.05001198	          0.12764759	          0.19355508	          0.18301293	          0.15855563	          0.10732934	          0.05920038	          0.05026806	          0.11986560	          0.05919323	          0.05920479	          0.10034214	          0.05000126	          0.05000146	          0.19671702	          0.05001487	          0.05000319	          0.05000074	          0.07263928	          0.07433204	          0.06252812	          0.05340317	          0.05002026	          0.05920294	          0.05000102	          0.05000332	          0.05000390	          0.49193308	          0.28870729	          0.17364288	          0.08115864	          0.46357567	          0.05000139	          0.05973573	          0.12326449	          0.11153809	
          1.11545865	         -2.92766940	         -1.96933393	          4.88667602	          1.39692992	          0.91905735	         -0.00224440	        -17.15971700	         -0.73429752	          6.21835869	         28.98440722	          3.53099424	         -2.79956290	         -7.39227281	        -12.21954522	         -2.35998651	          5.13606179	          7.64156554	         -3.61819978	          2.64171641	          0.27340841	         25.61887233	          0.47759912	         -2.07906154	          0.41823561	         -1.85744444	          4.42935992	        -13.45630813	         15.31081409	         -5.42424459	        -13.45277953	          5.12979571	         34.81748387	         17.45964647	         86.51662706	         86.51662706	          0.28243019	          0.08301238	          0.06291501	          0.28035783	          0.17804615	          0.09244789	          0.05006956	          0.05000648	          0.05000988	          0.05374597	          0.09681626	          0.10690333	          0.08822515	          0.06983662	          0.05032484	          0.07013982	          0.29205314	          0.05008677	          0.05003167	          0.05003190	          0.05002403	          0.05004140	          0.34986259	          0.55613534	          0.05000292	          0.05006604	          0.05920099	          0.17576983	          0.07259138	          0.13120366	          0.15008569	          0.25384651	          0.35440149	          0.29090207	          0.29673336	          0.28528138	          0.37353603	          0.05000027	          0.05000149	          0.08593915	          0.05000096	          0.05000031	          0.05000126	          0.05000018	          0.07016732	          0.05020365	          0.05000181	          0.05000167	          0.05000063	          0.05920329	          0.05003370	          0.05000132	          0.07069061	          0.05000240	          0.19559906	          0.05000630	          0.05000482	          0.11637083	          0.23926862	          0.25289806	          0.16263853	          0.09367697	          0.05000075	          0.07011006	          0.10138151	          0.05000148	          0.05000204	          0.11637380	          0.07004835	          0.07007378	          0.53735204	          0.17811051	          0.17682033	          0.08299713	          0.18198919	          0.18679561	          0.15698278	          0.05000009	          0.05000020	          0.05000003	          0.05000124	          0.05000666	          0.05000682	          0.54179537	          0.24385223	          0.17872758	          0.19209220	          0.48163238	          0.05920972	          0.05044957	          0.10410249	          0.09419904	
          1.12650280	         -2.92150611	         -2.08106996	          5.15568677	          1.41366755	          0.91812955	         -0.00205312	        -16.99675449	         -1.05232900	          6.01589223	         28.32339861	          3.83519422	         -2.56259871	         -9.34135972	        -12.67583219	         -3.05957755	          4.49141371	          8.61593187	         -4.03650269	          2.19924971	          0.11423841	         27.11051226	          0.45011465	         -1.87302318	          0.64874866	         -1.91540726	          4.12588206	        -13.45823714	         15.62007758	         -6.25404209	        -13.45898056	          4.88795957	         35.91835186	         17.06520110	         86.51662706	         86.51662706	          0.34356952	          0.07010783	          0.05313491	          0.23677603	          0.15036843	          0.07807665	          0.05002044	          0.05000414	          0.05000290	          0.05000106	          0.08176711	          0.13814782	          0.11706446	          0.05921403	          0.05920974	          0.05923954	          0.24782389	          0.07091500	          0.05009570	          0.05009891	          0.05012325	          0.05917373	          0.29547555	          0.54463409	          0.05009902	          0.05001019	          0.05000102	          0.14844593	          0.11760529	          0.11081510	          0.12677042	          0.21438491	          0.29930823	          0.24568004	          0.25060571	          0.24093480	          0.31546994	          0.05000018	          0.05000199	          0.11736250	          0.05000069	          0.05000019	          0.05000099	          0.05061124	          0.05925952	          0.05920358	          0.22928120	          0.05000147	          0.05505808	          0.05000116	          0.05000113	          0.20544401	          0.08358485	          0.07826475	          0.17319356	          0.05000082	          0.05000818	          0.09828084	          0.20207375	          0.21358470	          0.13735684	          0.10020462	          0.05001014	          0.05922068	          0.08562432	          0.05001867	          0.08884182	          0.09828358	          0.05920179	          0.05919903	          0.45381835	          0.15042278	          0.15535129	          0.07009490	          0.15369839	          0.15775764	          0.13257929	          0.05405788	          0.05550029	          0.05429448	          0.05000861	          0.05000756	          0.05000735	          0.45757142	          0.26528101	          0.15094415	          0.16223082	          0.55425369	          0.05000537	          0.05000014	          0.11637730	          0.07955540	
          1.13754695	         -2.91321356	         -2.19610566	          5.39404358	          1.43057680	          0.91726780	         -0.00185325	        -16.73337580	         -1.37114442	          5.80950653	         27.54216044	          4.08800646	         -2.31469987	        -11.43951081	        -13.10461826	         -3.95192352	          3.90867725	          9.56157249	         -4.46358211	          1.72893806	          0.17262249	         28.54945787	          0.41531355	         -1.66046521	          0.89009967	         -1.96496536	          3.76697611	        -13.46270592	         15.87846280	         -7.08693580	        -13.47047943	          4.70079358	         36.99369864	         16.71476196	         86.51662706	         86.51662706	          0.31417187	          0.05920937	          0.05000042	          0.34793794	          0.12699344	          0.06593954	          0.05001477	          0.05000111	          0.05000092	          0.05000170	          0.07008891	          0.12874235	          0.09886697	          0.05000999	          0.05000947	          0.05003189	          0.27855048	          0.05991743	          0.05000287	          0.05000769	          0.05000411	          0.05000290	          0.24954290	          0.49874011	          0.05000049	          0.05000268	          0.05000132	          0.14992811	          0.09932520	          0.09359056	          0.11306803	          0.18105779	          0.25277942	          0.20748794	          0.21164813	          0.20348106	          0.26642927	          0.05000036	          0.08831042	          0.13178805	          0.05000141	          0.05000737	          0.05000117	          0.06152968	          0.05004738	          0.05000031	          0.31286338	          0.26060564	          0.26144596	          0.16235528	          0.20448088	          0.17352354	          0.07059139	          0.06612958	          0.14626997	          0.08299490	          0.05004189	          0.08300282	          0.17066065	          0.18038287	          0.11600569	          0.13390652	          0.05000277	          0.05001674	          0.07231829	          0.18805359	          0.15455288	          0.11395337	          0.05000045	          0.05000052	          0.38327049	          0.12703959	          0.13121135	          0.05919854	          0.12981463	          0.16347698	          0.11200509	          0.05027940	          0.05001009	          0.05000050	          0.05000014	          0.05000058	          0.05000084	          0.56910006	          0.30870085	          0.16507638	          0.51746663	          0.52628536	          0.22466486	          0.07147038	          0.09828865	          0.06718820	
